<?xml version="1.0" standalone="no"?>
<!DOCTYPE svg PUBLIC "-//W3C//DTD SVG 20010904//EN"
 "http://www.w3.org/TR/2001/REC-SVG-20010904/DTD/svg10.dtd">
<svg version="1.0" xmlns="http://www.w3.org/2000/svg"
 width="172.000000pt" height="172.000000pt" viewBox="0 0 172.000000 172.000000"
 preserveAspectRatio="xMidYMid meet">
<metadata>
Created by potrace 1.14, written by Peter Selinger 2001-2017
</metadata>
<g transform="translate(0.000000,172.000000) scale(0.100000,-0.100000)"
fill="#000000" stroke="none">
<path d="M689 1679 c-20 -4 -47 -10 -60 -13 -88 -16 -228 -87 -321 -162 -148
-119 -252 -292 -293 -483 -18 -85 -17 -268 2 -340 8 -31 16 -63 18 -72 8 -38
61 -150 102 -214 108 -166 267 -282 473 -346 114 -35 308 -36 431 -3 185 49
330 144 451 294 75 94 149 261 166 375 15 104 7 265 -18 355 -102 372 -425
620 -805 618 -60 -1 -126 -4 -146 -9z m298 -106 c289 -65 506 -286 567 -578
20 -95 13 -251 -14 -340 -85 -272 -288 -459 -565 -521 -76 -17 -251 -12 -328
10 -340 94 -564 405 -544 756 10 182 87 350 219 478 143 139 312 209 505 210
51 0 123 -7 160 -15z"/>
<path d="M422 1049 c-12 -5 -24 -20 -28 -34 -10 -39 19 -62 89 -69 161 -16
281 -147 301 -328 4 -37 23 -58 52 -58 53 0 62 75 22 194 -36 110 -114 198
-221 251 -75 36 -178 58 -215 44z"/>
<path d="M1135 1043 c-72 -15 -168 -66 -217 -115 -23 -23 -23 -28 3 -81 l22
-45 29 33 c50 58 120 95 205 110 94 16 118 39 93 86 -9 15 -21 19 -63 18 -29
-1 -61 -3 -72 -6z"/>
</g>
</svg>
